<?xml version="1.0" encoding="UTF-8" standalone="no"?>
<svg
   xmlns:dc="http://purl.org/dc/elements/1.1/"
   xmlns:cc="http://creativecommons.org/ns#"
   xmlns:rdf="http://www.w3.org/1999/02/22-rdf-syntax-ns#"
   xmlns:svg="http://www.w3.org/2000/svg"
   xmlns="http://www.w3.org/2000/svg"
   xmlns:xlink="http://www.w3.org/1999/xlink"
   xmlns:sodipodi="http://sodipodi.sourceforge.net/DTD/sodipodi-0.dtd"
   xmlns:inkscape="http://www.inkscape.org/namespaces/inkscape"
   inkscape:export-ydpi="192"
   inkscape:export-xdpi="192"
   inkscape:export-filename="C:\Users\matt\OneDrive\Pictures\class icons\svg\pngs\leaderboard_class_spy_128.png"
   sodipodi:docname="leaderboard_class_spy.svg"
   inkscape:version="1.0 (4035a4fb49, 2020-05-01)"
   id="svg847"
   version="1.1"
   viewBox="0 0 64 64"
   height="64"
   width="64">
  <metadata
     id="metadata282">
    <rdf:RDF>
      <cc:Work
         rdf:about="">
        <dc:format>image/svg+xml</dc:format>
        <dc:type
           rdf:resource="http://purl.org/dc/dcmitype/StillImage" />
      </cc:Work>
    </rdf:RDF>
  </metadata>
  <defs
     id="defs841">
    <clipPath
       id="clipPath5021"
       clipPathUnits="userSpaceOnUse">
      <use
         id="use5023"
         xlink:href="#pathOutline"
         y="0"
         x="0" />
    </clipPath>
    <filter
       height="1.0652163"
       y="-0.032608135"
       width="1.1179812"
       x="-0.058990599"
       id="filter5236"
       style="color-interpolation-filters:sRGB"
       inkscape:collect="always">
      <feGaussianBlur
         id="feGaussianBlur5238"
         stdDeviation="0.77489823"
         inkscape:collect="always" />
    </filter>
  </defs>
  <sodipodi:namedview
     inkscape:snap-nodes="false"
     inkscape:guide-bbox="true"
     showguides="true"
     inkscape:window-maximized="1"
     inkscape:window-y="-8"
     inkscape:window-x="1912"
     inkscape:window-height="1377"
     inkscape:window-width="2560"
     inkscape:snap-smooth-nodes="true"
     units="px"
     showgrid="true"
     inkscape:document-rotation="0"
     inkscape:current-layer="g1615"
     inkscape:document-units="px"
     inkscape:cy="29.263754"
     inkscape:cx="32.119228"
     inkscape:zoom="11.313709"
     inkscape:pageshadow="2"
     inkscape:pageopacity="0.0"
     borderopacity="1.0"
     bordercolor="#666666"
     pagecolor="#ffffff"
     id="base">
    <inkscape:grid
       originy="32"
       originx="32"
       empopacity="0.30196078"
       empcolor="#3f3fff"
       opacity="0.10196078"
       color="#3f3fff"
       spacingx="0.25"
       spacingy="0.25"
       empspacing="4"
       id="grid1437"
       type="xygrid" />
    <sodipodi:guide
       id="guide1456"
       orientation="0,64"
       position="0,64" />
    <sodipodi:guide
       id="guide1458"
       orientation="64,0"
       position="64,64" />
    <sodipodi:guide
       id="guide1460"
       orientation="0,-64"
       position="64,0" />
    <sodipodi:guide
       id="guide1462"
       orientation="-64,0"
       position="0,0" />
    <sodipodi:guide
       id="guide1468"
       orientation="1,0"
       position="33,32.25" />
    <sodipodi:guide
       id="guide1470"
       orientation="0,-1"
       position="-2,31" />
  </sodipodi:namedview>
  <g
     id="layer1"
     inkscape:groupmode="layer"
     inkscape:label="leaderboard_class_spy">
    <g
       id="g1615"
       style="display:none">
      <path
         inkscape:label="outline"
         id="pathOutline"
         style="display:inline;opacity:1;fill-opacity:1"
         d="m 20,6 c -2.21812,1.5975499 -4.00841,3.952654 -5,6.5 -1.395788,3.585712 -1,11.5 -1,11.5 -0.597334,1.281871 -3,1.585786 -3,3 v 9 c 0,0.942809 1.394024,1.277724 2,2 1.307595,1.558552 2.613096,3.169074 3.5,5 0.758572,1.565997 1.038863,3.322165 1.5,5 0.364226,1.325228 0.390024,2.768408 1,4 0.947283,1.912645 2.692861,3.312711 4,5 1.020704,1.317551 1.720414,2.932088 3,4 0.572248,0.477585 1.182956,0.959148 2,1 0,0 3.331251,0.25 5,0.25 1.668749,0 5,-0.25 5,-0.25 0.817044,-0.04085 1.427752,-0.522415 2,-1 1.279586,-1.067912 1.979296,-2.682449 3,-4 1.307139,-1.687289 3.052717,-3.087355 4,-5 0.609976,-1.231592 0.635774,-2.674772 1,-4 0.461137,-1.677835 0.741428,-3.434003 1.5,-5 0.886904,-1.830926 2.192405,-3.441448 3.5,-5 0.605976,-0.722276 2,-1.057191 2,-2 v -9 c 0,-1.414214 -2.402666,-1.718129 -3,-3 0,0 0.395788,-7.914288 -1,-11.5 C 50.00841,9.952654 48.21812,7.5975499 46,6 37.603522,0.27613915 27.699763,0.57695661 20,6 Z m 13,16 c 2.168255,-0.0076 4.342252,0.03666 6.5,0.25 2.099595,0.207585 4.565827,-0.270807 6.25,1 1.101116,0.830856 1.937022,2.383325 1.75,3.75 -0.416664,3.044805 -2.973698,6.465266 -6,7 -1.506461,0.266185 -3,-1.5 -4,-2.25 -3.209537,-2.626676 -5.774677,-2.706558 -9,0 -1,0.75 -2.493539,2.516185 -4,2.25 -3.026302,-0.534734 -5.583336,-3.955195 -6,-7 -0.187022,-1.366675 0.648884,-2.919144 1.75,-3.75 1.684173,-1.270807 4.150405,-0.792415 6.25,-1 2.157748,-0.21334 4.331745,-0.2576 6.5,-0.25 z m -6,19.25 c 2.190092,-0.209225 3.799937,2.75 6,2.75 2.200063,0 3.809908,-2.959225 6,-2.75 1.427223,0.136346 2.741043,1.283636 3.5,2.5 0.536663,0.860099 0.540455,1.987014 0.5,3 -0.04113,1.029955 -0.242138,2.103018 -0.75,3 C 41.262893,51.493419 38,54 38,54 H 28 c 0,0 -3.262893,-2.506581 -4.25,-4.25 -0.507862,-0.896982 -0.708867,-1.970045 -0.75,-3 -0.04046,-1.012986 -0.03666,-2.139901 0.5,-3 0.758957,-1.216364 2.072777,-2.363654 3.5,-2.5 z"
         sodipodi:nodetypes="cscsssssssscscsssssssscscccssssccsssscaaaaaaccaaaa"
         mask="none" />
    </g>
    <g
       style="display:inline;opacity:1"
       inkscape:label="mask_fill_and_effects"
       clip-path="url(#clipPath5021)"
       id="g5019">
      <use
         id="use5064324"
         xlink:href="#pathOutline"
         y="0"
         x="0"
         width="100%"
         height="100%"
         style="display:inline;fill:#616161;fill-opacity:1" />
      <path
         sodipodi:nodetypes="csssccsssccssssssccsaaaas"
         d="m 33,54 c -1.918476,-0.0021 -4.986387,1.346142 -4.75,3.25 0.207911,1.674513 3.067985,1.88434 4.75,1.75 1.524941,-0.121795 3.93126,-0.721749 4,-2.25 0.0727,-1.616406 -2.38196,-2.74819 -4,-2.75 z m 2,-44 c 0,4.418278 -3.581722,8 -8,8 -4.418278,0 -8,-3.581722 -8,-8 0,-4.418278 3.581722,-8 8,-8 4.418278,0 8,3.581722 8,8 M 19.5,31.75 c -1.270479,0.437537 -2.196331,2.170711 -2,3.5 0.318675,2.157635 2.58615,4.226695 4.75,4.5 1.702413,0.215023 2.805536,-2.770621 4.5,-2.5 3.02802,0.483601 3.234933,7.308701 6.25,6.75 1.765008,-0.327061 1.626726,-3.244184 2,-5 0.450883,-2.120871 0.987761,-4.461104 0.25,-6.5 C 34.86853,31.445759 34.101555,30.208616 33,30 Z m 22,4.25 c 0.12454,1.531535 2.03607,2.991452 3.5,2.75 2.257752,-0.372381 3.499787,-3.475466 3.75,-5.75 0.07785,-0.707731 -0.145313,-1.624103 -0.75,-2 -0.711262,-0.442148 -1.759206,-0.140657 -2.5,0.25 -1.830963,0.965555 -4.167769,2.686853 -4,4.75 z"
         inkscape:label="highlights"
         style="display:inline;opacity:1;fill:#7c7c7c;fill-opacity:1;stroke:none;stroke-width:1px;stroke-linecap:butt;stroke-linejoin:miter;stroke-opacity:1;filter:url(#filter5236)"
         id="path5043" />
    </g>
    <use
       style="display:inline;fill:none;fill-opacity:1;stroke:#000000;stroke-width:2;stroke-miterlimit:4;stroke-dasharray:none;stroke-opacity:1"
       height="100%"
       width="100%"
       x="0"
       y="0"
       xlink:href="#pathOutline"
       id="use860" />
  </g>
</svg>
