<?xml version="1.0" encoding="UTF-8" standalone="no"?>
<svg
   xmlns:dc="http://purl.org/dc/elements/1.1/"
   xmlns:cc="http://creativecommons.org/ns#"
   xmlns:rdf="http://www.w3.org/1999/02/22-rdf-syntax-ns#"
   xmlns:svg="http://www.w3.org/2000/svg"
   xmlns="http://www.w3.org/2000/svg"
   xmlns:xlink="http://www.w3.org/1999/xlink"
   xmlns:sodipodi="http://sodipodi.sourceforge.net/DTD/sodipodi-0.dtd"
   xmlns:inkscape="http://www.inkscape.org/namespaces/inkscape"
   inkscape:version="1.0 (4035a4fb49, 2020-05-01)"
   sodipodi:docname="leaderboard_class_soldier.svg"
   id="svg8"
   version="1.1"
   viewBox="0 0 64 64"
   height="64"
   width="64">
  <defs
     id="defs2">
    <linearGradient
       id="linearGradient1493"
       inkscape:collect="always">
      <stop
         id="stop1487"
         offset="0"
         style="stop-color:#acacac;stop-opacity:0" />
      <stop
         style="stop-color:#ededed;stop-opacity:1"
         offset="0.4962799"
         id="stop1489" />
      <stop
         id="stop1491"
         offset="1"
         style="stop-color:#acacac;stop-opacity:0" />
    </linearGradient>
    <linearGradient
       inkscape:collect="always"
       id="linearGradient1031">
      <stop
         style="stop-color:#acacac;stop-opacity:0"
         offset="0"
         id="stop1025" />
      <stop
         id="stop1027"
         offset="0.4962799"
         style="stop-color:#d9d9d9;stop-opacity:1" />
      <stop
         style="stop-color:#acacac;stop-opacity:0"
         offset="1"
         id="stop1029" />
    </linearGradient>
    <linearGradient
       id="rocket_body_shiny_gradient_upper"
       inkscape:collect="always">
      <stop
         id="stop978"
         offset="0"
         style="stop-color:#acacac;stop-opacity:0" />
      <stop
         style="stop-color:#888888;stop-opacity:1"
         offset="0.4962799"
         id="stop986" />
      <stop
         id="stop994"
         offset="1"
         style="stop-color:#acacac;stop-opacity:0" />
    </linearGradient>
    <linearGradient
       inkscape:collect="always"
       id="linearGradient934">
      <stop
         style="stop-color:#000000;stop-opacity:0"
         offset="0"
         id="stop930" />
      <stop
         id="stop938"
         offset="0.57142824"
         style="stop-color:#000000;stop-opacity:0.44912282" />
      <stop
         style="stop-color:#000000;stop-opacity:0;"
         offset="1"
         id="stop932" />
    </linearGradient>
    <linearGradient
       inkscape:collect="always"
       id="linearGradient890">
      <stop
         style="stop-color:#666666;stop-opacity:1"
         offset="0"
         id="stop886" />
      <stop
         id="stop906"
         offset="0.27500001"
         style="stop-color:#666666;stop-opacity:1" />
      <stop
         id="stop904"
         offset="0.32499999"
         style="stop-color:#615f60;stop-opacity:1" />
      <stop
         id="stop902"
         offset="0.58749998"
         style="stop-color:#615f60;stop-opacity:1" />
      <stop
         id="stop900"
         offset="0.63749999"
         style="stop-color:#6e6e6e;stop-opacity:1" />
      <stop
         id="stop898"
         offset="0.80000001"
         style="stop-color:#6e6d6e;stop-opacity:1" />
      <stop
         id="stop896"
         offset="0.80844802"
         style="stop-color:#4a4a4a;stop-opacity:1" />
      <stop
         style="stop-color:#4a4a4a;stop-opacity:1"
         offset="1"
         id="stop888" />
    </linearGradient>
    <linearGradient
       inkscape:collect="always"
       id="rocket_body_shiny_gradient_lower">
      <stop
         style="stop-color:#696969;stop-opacity:1"
         offset="0"
         id="stop845" />
      <stop
         id="stop865"
         offset="0.2596167"
         style="stop-color:#aeaeae;stop-opacity:1;" />
      <stop
         id="stop861"
         offset="0.33631042"
         style="stop-color:#b6b6b6;stop-opacity:1;" />
      <stop
         style="stop-color:#c3c3c3;stop-opacity:1;"
         offset="0.41087654"
         id="stop871" />
      <stop
         id="stop853"
         offset="0.4962799"
         style="stop-color:#c8c8c8;stop-opacity:1" />
      <stop
         style="stop-color:#c5c5c5;stop-opacity:1;"
         offset="0.57528943"
         id="stop869" />
      <stop
         style="stop-color:#bababa;stop-opacity:1;"
         offset="0.66555148"
         id="stop863" />
      <stop
         id="stop867"
         offset="0.73049515"
         style="stop-color:#b2b2b2;stop-opacity:1;" />
      <stop
         style="stop-color:#696969;stop-opacity:1"
         offset="1"
         id="stop847" />
    </linearGradient>
    <linearGradient
       inkscape:collect="always"
       xlink:href="#rocket_body_shiny_gradient_lower"
       id="linearGradient851"
       x1="30"
       y1="33"
       x2="32.25"
       y2="35.25"
       gradientUnits="userSpaceOnUse"
       spreadMethod="pad" />
    <linearGradient
       inkscape:collect="always"
       xlink:href="#linearGradient890"
       id="linearGradient892"
       x1="40"
       y1="26"
       x2="60"
       y2="6"
       gradientUnits="userSpaceOnUse" />
    <linearGradient
       inkscape:collect="always"
       xlink:href="#linearGradient934"
       id="linearGradient936"
       x1="45.729218"
       y1="14.309878"
       x2="45.747086"
       y2="16.431339"
       gradientUnits="userSpaceOnUse" />
    <linearGradient
       inkscape:collect="always"
       xlink:href="#rocket_body_shiny_gradient_upper"
       id="linearGradient957"
       x1="43.25"
       y1="18.75"
       x2="46.75"
       y2="22.25"
       gradientUnits="userSpaceOnUse"
       gradientTransform="translate(-0.5)" />
    <filter
       inkscape:collect="always"
       style="color-interpolation-filters:sRGB"
       id="filter1017"
       x="-0.17845157"
       width="1.3569031"
       y="-0.17542055"
       height="1.3508411">
      <feGaussianBlur
         inkscape:collect="always"
         stdDeviation="1.0758213"
         id="feGaussianBlur1019" />
    </filter>
    <linearGradient
       inkscape:collect="always"
       xlink:href="#linearGradient1031"
       id="linearGradient1023"
       gradientUnits="userSpaceOnUse"
       gradientTransform="translate(-0.5)"
       x1="44.0625"
       y1="19.625"
       x2="45.96875"
       y2="21.59375" />
    <filter
       inkscape:collect="always"
       style="color-interpolation-filters:sRGB"
       id="filter1429"
       x="-0.11068123"
       width="1.2213625"
       y="-0.1054456"
       height="1.2108912">
      <feGaussianBlur
         inkscape:collect="always"
         stdDeviation="0.71817652"
         id="feGaussianBlur1431" />
    </filter>
    <filter
       inkscape:collect="always"
       style="color-interpolation-filters:sRGB"
       id="filter1471"
       x="-0.12947666"
       width="1.2589533"
       y="-0.13256864"
       height="1.2651373">
      <feGaussianBlur
         inkscape:collect="always"
         stdDeviation="0.57826166"
         id="feGaussianBlur1473" />
    </filter>
    <linearGradient
       inkscape:collect="always"
       xlink:href="#linearGradient1493"
       id="linearGradient1485"
       gradientUnits="userSpaceOnUse"
       gradientTransform="translate(-0.5)"
       x1="43.75"
       y1="19.25"
       x2="46.5"
       y2="22" />
  </defs>
  <sodipodi:namedview
     inkscape:snap-smooth-nodes="true"
     inkscape:window-maximized="1"
     inkscape:window-y="-8"
     inkscape:window-x="1912"
     inkscape:window-height="1377"
     inkscape:window-width="2560"
     inkscape:pagecheckerboard="true"
     units="px"
     showgrid="true"
     inkscape:document-rotation="0"
     inkscape:current-layer="layer2"
     inkscape:document-units="px"
     inkscape:cy="17.48679"
     inkscape:cx="37.771141"
     inkscape:zoom="16"
     inkscape:pageshadow="2"
     inkscape:pageopacity="0.0"
     borderopacity="1.0"
     bordercolor="#666666"
     pagecolor="#ffffff"
     id="base"
     inkscape:snap-nodes="true">
    <inkscape:grid
       empspacing="4"
       empopacity="0.30196078"
       empcolor="#3f3fff"
       opacity="0.10196078"
       color="#3f3fff"
       spacingy="0.25"
       spacingx="0.25"
       id="grid18"
       type="xygrid" />
  </sodipodi:namedview>
  <metadata
     id="metadata5">
    <rdf:RDF>
      <cc:Work
         rdf:about="">
        <dc:format>image/svg+xml</dc:format>
        <dc:type
           rdf:resource="http://purl.org/dc/dcmitype/StillImage" />
        <dc:title />
      </cc:Work>
    </rdf:RDF>
  </metadata>
  <g
     style="display:inline;opacity:1;mix-blend-mode:normal"
     inkscape:label="leaderboard_class_soldier"
     id="layer2"
     inkscape:groupmode="layer">
    <path
       style="fill:url(#linearGradient892);fill-opacity:1;stroke:none;stroke-width:1px;stroke-linecap:butt;stroke-linejoin:miter;stroke-opacity:1"
       d="M 58.25,4.75 45,6.5 36.5,15 35,21.25 l 9.25,9.25 5.75,-2 8.5,-8 2,-13.5 z"
       id="path884"
       inkscape:label="rocket_cap"
       sodipodi:nodetypes="ccccccccc" />
    <path
       id="path881"
       style="fill:#5a524d;fill-opacity:1;stroke:none;stroke-width:1px;stroke-linecap:butt;stroke-linejoin:miter;stroke-opacity:1"
       inkscape:label="brown_body"
       d="m 20.5,34.75 -5.75,4 10.75,11 L 30,45 Z M 35,21.25 31.25,25.25 40,34 44.25,30.25 Z"
       sodipodi:nodetypes="cccccccccc" />
    <path
       style="display:inline;mix-blend-mode:normal;fill:url(#linearGradient957);fill-opacity:1;stroke:none;stroke-width:1px;stroke-linecap:butt;stroke-linejoin:miter;stroke-opacity:1;filter:url(#filter1429)"
       d="M 48.34375,13.71875 35.6875,21.5 l 8,8.25 7.5625,-13.4375 c 0.51889,-2.147903 0.557608,-3.682865 -2.90625,-2.59375 z"
       id="path949"
       inkscape:label="rocket_body_shiny_upper"
       sodipodi:nodetypes="ccccc" />
    <path
       style="display:inline;fill:url(#linearGradient1023);fill-opacity:1;stroke:none;stroke-width:1px;stroke-linecap:butt;stroke-linejoin:miter;stroke-opacity:1;filter:url(#filter1017)"
       d="M 41.96875,15.96875 39.5,18.1875 l 8,8.25 2.71875,-2.46875 z"
       id="path1433"
       inkscape:label="rocket_body_shiny_upper_highlight1"
       sodipodi:nodetypes="ccccc" />
    <path
       sodipodi:nodetypes="ccccc"
       inkscape:label="rocket_body_shiny_upper_highlight2"
       id="path1021"
       d="m 43.75,18.75 -5.6875,5.0625 3.5,3.46875 L 46.5,21.25 c 0.159672,-2.266928 -0.83067,-2.8125 -2.75,-2.5 z"
       style="display:inline;fill:url(#linearGradient1485);fill-opacity:1;stroke:none;stroke-width:1px;stroke-linecap:butt;stroke-linejoin:miter;stroke-opacity:1;filter:url(#filter1471)" />
    <path
       style="display:inline;fill:url(#linearGradient851);fill-opacity:1;stroke:none;stroke-width:1px;stroke-linecap:butt;stroke-linejoin:miter;stroke-opacity:1"
       d="M 21.5,35.5 30,44.5 40,34 31,25 Z"
       id="path843"
       inkscape:label="rocket_body_shiny_lower"
       sodipodi:nodetypes="ccccc" />
    <path
       style="display:inline;fill:#fd8701;fill-opacity:1;stroke:none;stroke-width:1px;stroke-linecap:butt;stroke-linejoin:miter;stroke-opacity:1"
       d="M 17,39 C 10.75,38.5 5,45 11.5,45 L 2,58 c -0.230437,3.208068 -0.011077,3 3,3 l 13,-7.5 c 5.291626,4.529922 4.25,-1.75 8,-5.5 z"
       id="path837"
       inkscape:label="flame_outer"
       sodipodi:nodetypes="ccccccc" />
    <path
       style="display:inline;fill:#ffd08c;fill-opacity:1;stroke:none;stroke-width:1px;stroke-linecap:butt;stroke-linejoin:miter;stroke-opacity:1"
       d="m 18,41.5 -6,1.25 3.5,0.75 -10,14 14,-8 2.25,1.75 1,-5 z"
       id="path839"
       inkscape:label="flame_middle"
       sodipodi:nodetypes="cccccccc" />
    <path
       style="display:inline;fill:#ffff00;fill-opacity:1;stroke:none;stroke-width:1px;stroke-linecap:butt;stroke-linejoin:miter;stroke-opacity:1"
       d="m 19.5,43 -2,0.5 -3.25,5.5 H 16 l 5.25,-2.5 0.5,-1.25 z"
       id="path841"
       inkscape:label="flame_inner"
       sodipodi:nodetypes="ccccccc" />
    <path
       id="rect928"
       style="display:inline;opacity:1;mix-blend-mode:normal;fill:url(#linearGradient936);fill-opacity:1;stroke:none;stroke-width:1.3031;stroke-linejoin:round;stroke-miterlimit:4;stroke-dasharray:none;stroke-opacity:1"
       transform="matrix(0.709688,0.70451611,-0.71303726,0.70112614,0,0)"
       d="m 38.651928,13.576864 14.496233,0.05302 0.214008,4.420357 -14.846821,0.299268 z"
       sodipodi:nodetypes="ccccc"
       inkscape:label="flame_nozzle_shadow" />
    <path
       style="color:#000000;font-style:normal;font-variant:normal;font-weight:normal;font-stretch:normal;font-size:medium;line-height:normal;font-family:sans-serif;font-variant-ligatures:normal;font-variant-position:normal;font-variant-caps:normal;font-variant-numeric:normal;font-variant-alternates:normal;font-variant-east-asian:normal;font-feature-settings:normal;font-variation-settings:normal;text-indent:0;text-align:start;text-decoration:none;text-decoration-line:none;text-decoration-style:solid;text-decoration-color:#000000;letter-spacing:normal;word-spacing:normal;text-transform:none;writing-mode:lr-tb;direction:ltr;text-orientation:mixed;dominant-baseline:auto;baseline-shift:baseline;text-anchor:start;white-space:normal;shape-padding:0;shape-margin:0;inline-size:0;clip-rule:nonzero;display:inline;overflow:visible;visibility:visible;opacity:1;isolation:auto;mix-blend-mode:normal;color-interpolation:sRGB;color-interpolation-filters:linearRGB;solid-color:#000000;solid-opacity:1;vector-effect:none;fill:#000000;fill-opacity:1;fill-rule:nonzero;stroke:none;stroke-width:2;stroke-linecap:butt;stroke-linejoin:round;stroke-miterlimit:4;stroke-dasharray:none;stroke-dashoffset:0;stroke-opacity:1;color-rendering:auto;image-rendering:auto;shape-rendering:auto;text-rendering:auto;enable-background:accumulate;stop-color:#000000;stop-opacity:1"
       d="m 58.279297,3.75 c -0.03715,-7.66e-4 -0.07432,5.394e-4 -0.111328,0.00391 0,0 -8.975334,0.7205409 -13.400391,1.7734376 -0.161059,0.038461 -0.310047,0.1163109 -0.433594,0.2265624 0,0 -2.188898,1.9551311 -3.285156,3.0332032 -1.852152,1.8214278 -5.283203,5.5332038 -5.283203,5.5332028 -0.10764,0.116648 -0.185971,0.257241 -0.228516,0.410157 L 34,20.5 c 0,0 -0.61318,-0.146593 -0.75,0 l -3.5,3.75 c -0.181044,0.193975 0.07201,0.844024 -0.108399,1.038595 L 21.564453,34 H 19.25 c -0.222183,2.37e-4 -0.43796,0.07445 -0.613281,0.210938 L 14,38.25 C 12.555235,38.538716 11.132342,39.101271 9.9335938,39.925781 9.4400463,40.265248 8.8524582,40.694302 8.3574219,41.271484 7.8623855,41.848666 7.6711191,42.734113 7.75,43.5 7.811838,44.100406 8.1506763,44.68134 8.5722656,45.113281 8.883981,45.43265 9.2914024,45.619822 9.75,45.75 L 1.2070312,57.390625 c -0.47374324,0.615867 -0.51170232,1.286136 -0.4492187,1.933594 0.0624836,0.647458 0.257255,1.302086 0.7519531,1.847656 0.5023581,0.554018 1.1465958,0.808737 1.7890625,0.931641 0.6424668,0.122904 1.3031337,0.145669 1.9609375,-0.244141 L 17.546875,54.625 c 0,0 2.393187,1.508463 3.703125,1.375 0.782116,-0.07969 1.1,0.25 2,-1.25 L 25.5,51 30.617188,46.287109 c 0.175185,-0.137248 0.299588,-0.329007 0.353515,-0.544921 L 31.400391,44.021484 40,35.75 c 0.329568,-0.316993 0.676658,0.07334 1,-0.25 L 44.5,32 c 0.14464,-0.14464 0.02148,-0.613281 0.02148,-0.613281 0,0 0.95088,-0.26348 2.109375,-0.650391 1.298898,-0.433802 2.813602,-0.984825 3.884766,-1.630859 1.91095,-1.152522 3.269675,-2.806653 4.669922,-4.126953 1.414666,-1.333896 4.03125,-4.03125 4.03125,-4.03125 0.14031,-0.144791 0.233581,-0.328609 0.267578,-0.527344 l 2.25,-13.0000001 c 0.05543,-0.3200101 -0.04799,-0.6470083 -0.277344,-0.8769531 l -2.5,-2.5 C 58.776757,3.8624427 58.534307,3.757637 58.279297,3.75 Z m -0.402344,2.0410156 1.798828,1.7988282 -2.105469,12.1757812 c -0.257223,0.264352 -2.497978,2.569798 -3.755859,3.755859 -1.520129,1.433338 -2.8039,2.952587 -4.330078,3.873047 -0.757924,0.457115 -2.242498,1.029902 -3.486328,1.445313 -1.24383,0.41541 -2.263672,0.695312 -2.263672,0.695312 -0.1607,0.04445 -0.307737,0.128377 -0.427734,0.244141 l -13.5,13 c -0.135592,0.130262 -0.231716,0.29611 -0.277344,0.478515 L 29.113281,44.923828 27,47 24.682333,46.227444 c -0.0984,-0.0328 -0.682355,-0.229566 -0.673868,0.640562 L 23.5,49.5 l -1.958984,4 C 21.433011,53.720532 21.244503,53.977238 21,54 20.687767,54.02907 20.428863,53.717662 20.203125,53.5 l -1.201172,-1.158203 c -0.317346,-0.361976 -0.847541,-0.446512 -1.261719,-0.201172 l -13.4999996,8 c 0.049486,-0.02933 -0.2536666,0.05787 -0.5664063,-0.002 C 3.3610885,60.078795 3.0587327,59.90362 2.9902344,59.828078 2.9223704,59.753238 2.7777053,59.438134 2.7480469,59.130812 2.7183889,58.823491 2.8355819,58.553931 2.7929689,58.609328 L 14,44 h -4 c -0.3106855,0 -0.4163207,-1.083885 -0.1230465,-1.425825 0.2932735,-0.34194 0.7491195,-0.697135 1.1894525,-1 0.649986,-0.447066 2.229214,-0.926923 3.572266,-1.195313 1.343052,-0.26839 2.46289,-0.384765 2.46289,-0.384765 C 17.611568,39.941984 17.999578,39.512662 18,39 V 37.238281 L 19.591797,36 H 22 c 0.278053,-3.12e-4 0.543424,-0.116368 0.732422,-0.320312 l 12.75,-13.75 c 0.108346,-0.116447 0.187355,-0.257056 0.230469,-0.410157 l 1.68164,-6.007812 c 0.201003,-0.217032 3.348756,-3.619275 5.056641,-5.298828 0.940625,-0.9250222 2.750511,-2.5444555 3.005859,-2.7734379 3.910174,-0.8944246 11.675827,-1.5841517 12.419922,-1.6484375 z"
       id="path914"
       sodipodi:nodetypes="ccccscccsssccccssaaccsssccasccccssscssscccccccccsssccccccsscsasccccssccsssscccccccccscc"
       inkscape:label="outline_exterior" />
    <path
       sodipodi:nodetypes="cc"
       inkscape:label="outline_interior_2"
       id="path859"
       d="M 42,9.5 55.75,23.25"
       style="fill:none;stroke:#000000;stroke-width:2;stroke-linecap:butt;stroke-linejoin:miter;stroke-miterlimit:4;stroke-dasharray:none;stroke-opacity:1" />
    <path
       sodipodi:nodetypes="cccc"
       d="m 34.5,20.5 10,10 M 21,35 l 9,9.75"
       inkscape:label="outline_interior_1.5"
       style="display:inline;fill:none;stroke:#000000;stroke-width:1.5;stroke-linecap:butt;stroke-linejoin:miter;stroke-miterlimit:4;stroke-dasharray:none;stroke-opacity:1"
       id="path871" />
    <path
       inkscape:label="outline_interior_0.8"
       id="path873"
       d="m 31,25 9,9"
       style="display:inline;fill:none;stroke:#000000;stroke-width:1.15;stroke-linecap:butt;stroke-linejoin:miter;stroke-miterlimit:4;stroke-dasharray:none;stroke-opacity:1" />
  </g>
</svg>
