<?xml version="1.0" encoding="UTF-8" standalone="no"?>
<svg
   xmlns:dc="http://purl.org/dc/elements/1.1/"
   xmlns:cc="http://creativecommons.org/ns#"
   xmlns:rdf="http://www.w3.org/1999/02/22-rdf-syntax-ns#"
   xmlns:svg="http://www.w3.org/2000/svg"
   xmlns="http://www.w3.org/2000/svg"
   xmlns:xlink="http://www.w3.org/1999/xlink"
   xmlns:sodipodi="http://sodipodi.sourceforge.net/DTD/sodipodi-0.dtd"
   xmlns:inkscape="http://www.inkscape.org/namespaces/inkscape"
   width="64"
   height="64"
   viewBox="0 0 64 64"
   version="1.1"
   id="svg8"
   inkscape:version="1.0 (4035a4fb49, 2020-05-01)"
   sodipodi:docname="leaderboard_class_scout.svg">
  <defs
     id="defs2">
    <clipPath
       clipPathUnits="userSpaceOnUse"
       id="clipPath1326">
      <use
         x="0"
         y="0"
         xlink:href="#g1322"
         id="use1328" />
    </clipPath>
    <filter
       height="1.3498592"
       y="-0.17492961"
       width="1.3259842"
       x="-0.1629921"
       id="filter1220"
       style="color-interpolation-filters:sRGB"
       inkscape:collect="always">
      <feGaussianBlur
         id="feGaussianBlur1222"
         stdDeviation="0.61809455"
         inkscape:collect="always" />
    </filter>
    <filter
       height="1.2130177"
       y="-0.10650887"
       width="1.0912933"
       x="-0.045646661"
       id="filter1414"
       style="color-interpolation-filters:sRGB"
       inkscape:collect="always">
      <feGaussianBlur
         id="feGaussianBlur1416"
         stdDeviation="0.63406067"
         inkscape:collect="always" />
    </filter>
    <filter
       height="1.1412385"
       y="-0.070619259"
       width="1.1892596"
       x="-0.094629808"
       id="filter1497"
       style="color-interpolation-filters:sRGB"
       inkscape:collect="always">
      <feGaussianBlur
         id="feGaussianBlur1499"
         stdDeviation="0.52161397"
         inkscape:collect="always" />
    </filter>
    <filter
       height="1.1305922"
       y="-0.065296105"
       width="1.0758961"
       x="-0.037948047"
       id="filter1628"
       style="color-interpolation-filters:sRGB"
       inkscape:collect="always">
      <feGaussianBlur
         id="feGaussianBlur1630"
         stdDeviation="0.65681085"
         inkscape:collect="always" />
    </filter>
    <filter
       height="1.2161568"
       y="-0.10807838"
       width="1.1221104"
       x="-0.061055194"
       id="filter1704"
       style="color-interpolation-filters:sRGB"
       inkscape:collect="always">
      <feGaussianBlur
         id="feGaussianBlur1706"
         stdDeviation="0.59164277"
         inkscape:collect="always" />
    </filter>
    <filter
       height="1.1624017"
       y="-0.081200861"
       width="1.0842446"
       x="-0.042122316"
       id="filter1716"
       style="color-interpolation-filters:sRGB"
       inkscape:collect="always">
      <feGaussianBlur
         id="feGaussianBlur1718"
         stdDeviation="0.98117711"
         inkscape:collect="always" />
    </filter>
    <filter
       height="1.1582748"
       y="-0.079137395"
       width="1.1425475"
       x="-0.071273726"
       id="filter1784"
       style="color-interpolation-filters:sRGB"
       inkscape:collect="always">
      <feGaussianBlur
         id="feGaussianBlur1786"
         stdDeviation="0.86796723"
         inkscape:collect="always" />
    </filter>
  </defs>
  <sodipodi:namedview
     inkscape:snap-nodes="false"
     inkscape:snap-grids="true"
     id="base"
     pagecolor="#ffffff"
     bordercolor="#666666"
     borderopacity="1.0"
     inkscape:pageopacity="0.0"
     inkscape:pageshadow="2"
     inkscape:zoom="37.571986"
     inkscape:cx="50.177733"
     inkscape:cy="17.42571"
     inkscape:document-units="px"
     inkscape:current-layer="layer2"
     inkscape:document-rotation="0"
     showgrid="true"
     units="px"
     viewbox-width="64"
     scale-x="1"
     inkscape:pagecheckerboard="true"
     inkscape:window-width="2560"
     inkscape:window-height="1377"
     inkscape:window-x="1912"
     inkscape:window-y="-8"
     inkscape:window-maximized="1"
     inkscape:snap-smooth-nodes="true">
    <inkscape:grid
       type="xygrid"
       id="grid833"
       spacingy="0.066145834"
       spacingx="0.066145834"
       empspacing="4"
       color="#3f3fff"
       opacity="0.10196078"
       empcolor="#3f3fff"
       empopacity="0.30196078" />
  </sodipodi:namedview>
  <metadata
     id="metadata5">
    <rdf:RDF>
      <cc:Work
         rdf:about="">
        <dc:format>image/svg+xml</dc:format>
        <dc:type
           rdf:resource="http://purl.org/dc/dcmitype/StillImage" />
        <dc:title />
      </cc:Work>
    </rdf:RDF>
  </metadata>
  <g
     id="layer2"
     inkscape:label="leaderboard_class_scout"
     style="opacity:1;mix-blend-mode:screen">
    <g
       id="g1324"
       clip-path="url(#clipPath1326)"
       inkscape:label="interior_clipgroup">
      <g
         inkscape:label="Clip"
         id="g1322">
        <path
           id="path1319"
           style="display:inline;fill:#4c4c4c;fill-opacity:1;stroke:none;stroke-width:2;stroke-linecap:round;stroke-linejoin:round;stroke-miterlimit:4;stroke-dasharray:none;stroke-opacity:1"
           d="M 33,30 C 33.752107,20.924498 26.791766,17.681183 29.36875,14.552083 35.235478,7.4284168 52.161308,6.1782143 62.000001,6.0000001 63.399497,10.250319 56.479445,11.819763 53.000001,12 53.515879,20.733393 49.707384,23.480543 46,25 l 6.000001,5 z m 0,0 C 11.388837,53.911749 24.483903,41.36227 6.1387739,52.627383 4.0568511,53.90582 4.9305855,59.000821 7.5000001,59.000001 28.493408,59.707461 23.442143,58.358922 35.5,50.500001 50.231634,43.530339 51.068909,50.404029 56.500001,40 c 1.982641,-3.798031 0.175895,-9.864451 -4.5,-10 z"
           inkscape:label="interior_fill"
           sodipodi:nodetypes="csccccccsccscc" />
      </g>
      <path
         inkscape:label="highlight_wing_main"
         sodipodi:nodetypes="cccsccccc"
         id="path1501"
         d="m 28.045834,6.8791667 -3.96875,11.6416673 1.852083,5.820833 h 15.875 C 43.920834,24.341667 49.477084,12.7 49.477084,12.7 l 9.789583,-2.116667 6.35,-2.9104163 L 61.118751,2.38125 Z"
         style="fill:#717070;fill-opacity:1;stroke:none;stroke-width:1px;stroke-linecap:butt;stroke-linejoin:miter;stroke-opacity:1;filter:url(#filter1628)" />
      <path
         style="display:inline;fill:#adadad;fill-opacity:1;stroke:none;stroke-width:1px;stroke-linecap:butt;stroke-linejoin:miter;stroke-opacity:1;filter:url(#filter1716)"
         d="M -3.25,59.000001 H 10 c 0,0 7.49176,-3.733573 11,-6 3.247892,-2.098235 6.213779,-4.605684 9.25,-7.000001 2.371067,-1.869786 4.290573,-4.416935 7,-5.75 2.992791,-1.472482 6.567177,-1.252685 9.75,-2.25 1.712933,-0.536735 4.119672,-0.435633 5.000001,-2 0.994368,-1.767015 1,-6 -1,-6 H -3 Z"
         id="path1332"
         inkscape:label="highlight_upper_low"
         sodipodi:nodetypes="ccaaaaaccc" />
      <path
         style="fill:#696968;fill-opacity:1;stroke:none;stroke-width:1px;stroke-linecap:butt;stroke-linejoin:miter;stroke-opacity:1;filter:url(#filter1704)"
         d="m 32,53.000001 c 0,0 -0.662242,-2.842757 0,-4.000001 0.968137,-1.691784 3.274211,-2.140598 5.041667,-2.9625 2.883386,-1.340829 6.019666,-2.055103 8.995833,-3.175 1.778053,-0.66906 3.435734,-1.710925 5.291667,-2.116666 3.450686,-0.754385 10.583334,-0.529167 10.583334,-0.529167 l -2.116667,13.758334 z"
         id="path866"
         sodipodi:nodetypes="caaaaccc"
         inkscape:label="highlight_lower" />
      <path
         style="fill:#c8c8c8;fill-opacity:1;stroke:none;stroke-width:1px;stroke-linecap:butt;stroke-linejoin:miter;stroke-opacity:1;filter:url(#filter1784)"
         d="m 5.5000001,56.000001 c 0,0 3.7402293,0.04046 5.4999999,-0.5 C 15.278772,54.185909 19.143786,51.651404 22.75,49 26.928865,45.927564 31.960786,43.019107 34,38.25 34.688022,36.640924 35.215547,34.258946 34,33 27.397254,26.161516 5.5000001,32 5.5000001,32 Z"
         id="path864"
         sodipodi:nodetypes="caaaacc"
         inkscape:label="highlight_upper_hi" />
      <path
         inkscape:label="highlight_wing_top"
         id="path1224"
         d="M 29.633334,16.933334 38.1,12.7 l 8.995834,-2.645833 13.229167,-4.2333336 -9.525,-3.175 L 26.9875,10.054167 Z"
         style="fill:#999999;fill-opacity:1;stroke:none;stroke-width:1px;stroke-linecap:butt;stroke-linejoin:miter;stroke-opacity:1;filter:url(#filter1414)" />
      <path
         sodipodi:nodetypes="ccccc"
         inkscape:label="highlight_wing_front"
         id="path1418"
         d="M 34.395834,11.1125 37.835417,29.897917 24.60625,29.633334 V 12.170833 Z"
         style="fill:#888888;fill-opacity:1;stroke:none;stroke-width:1px;stroke-linecap:butt;stroke-linejoin:miter;stroke-opacity:1;filter:url(#filter1497)" />
      <path
         style="fill:#adadad;fill-opacity:1;stroke:none;stroke-width:1px;stroke-linecap:butt;stroke-linejoin:miter;stroke-opacity:1;filter:url(#filter1220)"
         d="m 26.75,17.75 c 0,0 2.320153,1.179127 3.4125,0.770834 C 32.97875,17.468188 36.781246,13.969877 35.5,11.25 34.255029,8.6071287 29.5,9.5000001 26.75,10.75 Z"
         id="path2475"
         inkscape:label="highlight_wing_corner"
         sodipodi:nodetypes="caacc" />
    </g>
    <path
       id="path856"
       style="display:inline;fill:none;fill-opacity:1;stroke:#000000;stroke-width:2;stroke-linecap:round;stroke-linejoin:round;stroke-miterlimit:4;stroke-dasharray:none;stroke-opacity:1"
       d="M 33,30 V 26 C 33,25 31.949876,23.518902 31.5,22.25 30.654453,19.865084 28.386015,17.378299 29.25,15 30.299712,12.110451 33.860757,11.400428 37,10 40.139243,8.5995717 44.271669,7.7375579 48,7.0000001 c 2.636329,-0.5215322 5.317775,-0.8330106 8.000001,-1 1.996135,-0.1242749 6,0 6,0 v 3 c 0,0 -2.589975,1.5162099 -4,1.9999999 -1.607675,0.551606 -3.167826,0.941622 -5,1 0,0 0.228835,3.728342 -0.25,5.5 -0.515447,1.907117 -1.374102,3.832368 -2.75,5.25 C 48.93455,23.847768 46,25 46,25 l 6.000001,5 z m 0,0 c 0,0 -6.936161,7.240143 -10.25,11 -1.291051,1.464817 -2.246057,3.254746 -3.75,4.5 -1.982528,1.641519 -4.5,2.5 -6.75,3.75 0,0 -5.9052048,2.634292 -6.7499999,3.750001 -0.8447951,1.115709 0,4.5 0,4.5 0,0.833333 1.1666667,1.5 2,1.5 H 17.5 c 0,0 4.930977,-0.03416 7,-0.75 4.25887,-1.55486 7.04739,-5.629876 11,-7.75 1.418287,-0.760749 2.966271,-1.262195 4.5,-1.750001 2.619441,-0.833119 5.322421,-1.378607 8,-2 1.162264,-0.26973 2.478824,-0.132902 3.500001,-0.75 2.228173,-1.346486 4.113731,-3.552081 5,-6 0.794326,-2.193967 1.101002,-4.942759 0,-7 -0.850654,-1.589461 -2.697224,-3 -4.5,-3 z"
       inkscape:label="outline_exterior"
       sodipodi:nodetypes="csaasaaccacaaccccaaazssccaaaaaasc"
       sodipodi:insensitive="true" />
    <path
       sodipodi:nodetypes="cccacac"
       id="path860"
       style="fill:none;stroke:#000000;stroke-width:1.5;stroke-linecap:round;stroke-linejoin:round;stroke-miterlimit:4;stroke-dasharray:none;stroke-opacity:1"
       d="m 53.000001,17 -15.958334,3.902084 m 15.845414,-9.137335 c 0,0 -5.969037,1.332064 -8.887081,2.235251 -2.451961,0.758926 -7.222916,2.66875 -7.222916,2.66875 0,0 -0.106737,4.245415 0.222916,6.33125 0.189411,1.198476 1,3.5 1,3.5"
       inkscape:label="outline_interior" />
  </g>
</svg>
