<?xml version="1.0" encoding="UTF-8" standalone="no"?>
<svg
   xmlns:dc="http://purl.org/dc/elements/1.1/"
   xmlns:cc="http://creativecommons.org/ns#"
   xmlns:rdf="http://www.w3.org/1999/02/22-rdf-syntax-ns#"
   xmlns:svg="http://www.w3.org/2000/svg"
   xmlns="http://www.w3.org/2000/svg"
   xmlns:sodipodi="http://sodipodi.sourceforge.net/DTD/sodipodi-0.dtd"
   xmlns:inkscape="http://www.inkscape.org/namespaces/inkscape"
   inkscape:export-ydpi="768"
   inkscape:export-xdpi="768"
   inkscape:export-filename="C:\Users\matt\OneDrive\Pictures\class icons\svg\pngs\leaderboard_class_pyro_512.png"
   inkscape:version="1.0 (4035a4fb49, 2020-05-01)"
   sodipodi:docname="leaderboard_class_pyro.svg"
   id="svg1738"
   version="1.1"
   viewBox="0 0 64 64"
   height="64"
   width="64">
  <defs
     id="defs1732" />
  <sodipodi:namedview
     inkscape:snap-nodes="false"
     inkscape:object-nodes="true"
     inkscape:window-maximized="1"
     inkscape:window-y="-8"
     inkscape:window-x="1912"
     inkscape:window-height="1377"
     inkscape:window-width="2560"
     units="px"
     showgrid="true"
     inkscape:document-rotation="0"
     inkscape:current-layer="layer5"
     inkscape:document-units="px"
     inkscape:cy="35.365441"
     inkscape:cx="65.913098"
     inkscape:zoom="11.313709"
     inkscape:pageshadow="2"
     inkscape:pageopacity="0.0"
     borderopacity="1.0"
     bordercolor="#666666"
     pagecolor="#ffffff"
     id="base">
    <inkscape:grid
       spacingy="0.5"
       spacingx="0.5"
       empopacity="0.25098039"
       empcolor="#3f3fff"
       opacity="0.10196078"
       color="#3f3fff"
       empspacing="2"
       id="grid2317"
       type="xygrid" />
  </sodipodi:namedview>
  <metadata
     id="metadata1735">
    <rdf:RDF>
      <cc:Work
         rdf:about="">
        <dc:format>image/svg+xml</dc:format>
        <dc:type
           rdf:resource="http://purl.org/dc/dcmitype/StillImage" />
        <dc:title />
      </cc:Work>
    </rdf:RDF>
  </metadata>
  <g
     style="opacity:1"
     inkscape:label="leaderboard_class_pyro"
     id="layer5"
     inkscape:groupmode="layer">
    <path
       inkscape:label="fill"
       style="color:#000000;font-style:normal;font-variant:normal;font-weight:normal;font-stretch:normal;font-size:medium;line-height:normal;font-family:sans-serif;font-variant-ligatures:normal;font-variant-position:normal;font-variant-caps:normal;font-variant-numeric:normal;font-variant-alternates:normal;font-variant-east-asian:normal;font-feature-settings:normal;font-variation-settings:normal;text-indent:0;text-align:start;text-decoration:none;text-decoration-line:none;text-decoration-style:solid;text-decoration-color:#000000;letter-spacing:normal;word-spacing:normal;text-transform:none;writing-mode:lr-tb;direction:ltr;text-orientation:mixed;dominant-baseline:auto;baseline-shift:baseline;text-anchor:start;white-space:normal;shape-padding:0;shape-margin:0;inline-size:0;clip-rule:nonzero;display:inline;overflow:visible;visibility:visible;isolation:auto;mix-blend-mode:normal;color-interpolation:sRGB;color-interpolation-filters:linearRGB;solid-color:#000000;solid-opacity:1;vector-effect:none;fill:#f08300;fill-opacity:1;fill-rule:nonzero;stroke:none;stroke-width:2;stroke-linecap:butt;stroke-linejoin:miter;stroke-miterlimit:4;stroke-dasharray:none;stroke-dashoffset:0;stroke-opacity:1;color-rendering:auto;image-rendering:auto;shape-rendering:auto;text-rendering:auto;enable-background:accumulate;stop-color:#000000;stop-opacity:1"
       d="m 20.5,26 c -1.257154,5.789959 -0.143381,10.105343 4,11.5 C 24.194794,15.931659 26.10576,17.385571 33,2.5 38.645229,6.185813 30.183959,20.870529 37.183161,23.307251 43.635092,25.553444 35.723306,11.344055 41.5,9.5 48.934611,23.169367 60.25423,37.803511 39.7377,56.182303 18.869396,61.896335 4.1705561,34.632053 20.5,26 Z"
       id="path837"
       sodipodi:nodetypes="cccsccc" />
    <path
       inkscape:label="outline"
       style="color:#000000;font-style:normal;font-variant:normal;font-weight:normal;font-stretch:normal;font-size:medium;line-height:normal;font-family:sans-serif;font-variant-ligatures:normal;font-variant-position:normal;font-variant-caps:normal;font-variant-numeric:normal;font-variant-alternates:normal;font-variant-east-asian:normal;font-feature-settings:normal;font-variation-settings:normal;text-indent:0;text-align:start;text-decoration:none;text-decoration-line:none;text-decoration-style:solid;text-decoration-color:#000000;letter-spacing:normal;word-spacing:normal;text-transform:none;writing-mode:lr-tb;direction:ltr;text-orientation:mixed;dominant-baseline:auto;baseline-shift:baseline;text-anchor:start;white-space:normal;shape-padding:0;shape-margin:0;inline-size:0;clip-rule:nonzero;display:inline;overflow:visible;visibility:visible;isolation:auto;mix-blend-mode:normal;color-interpolation:sRGB;color-interpolation-filters:linearRGB;solid-color:#000000;solid-opacity:1;vector-effect:none;fill:#000000;fill-opacity:1;fill-rule:nonzero;stroke:none;stroke-width:2;stroke-linecap:butt;stroke-linejoin:miter;stroke-miterlimit:4;stroke-dasharray:none;stroke-dashoffset:0;stroke-opacity:1;color-rendering:auto;image-rendering:auto;shape-rendering:auto;text-rendering:auto;enable-background:accumulate;stop-color:#000000;stop-opacity:1"
       d="M 32.703125,0.65820312 32.082031,2.1054688 c 0,0 -1.757781,4.0874152 -2.662109,6.0898437 -1.443705,3.1967565 -3.658511,6.3009075 -4.667969,10.0429685 -1.291177,4.786409 -1.149738,9.738326 -1.326172,14.455078 -0.03292,0.880126 0.0281,2.043197 0.07422,3.019532 0.0014,0.03025 5.55e-4,0.04631 0.002,0.07617 -0.624409,-0.462051 -1.310568,-1.066238 -1.541015,-1.404296 -0.493254,-0.723588 -0.681591,-1.829032 -0.806641,-3 -0.159217,-1.490908 0.335937,-5.240235 0.335937,-5.240235 l 0.244141,-1.685547 -1.591797,0.607422 c 0,0 -0.850144,0.322589 -1.828125,0.822266 -0.977981,0.499677 -2.097922,1.103029 -2.802734,2.076172 -2.51243,3.468942 -3.075414,8.047944 -2.886719,12.103515 0.117527,2.525978 1.056802,4.97261 2.355469,7.046875 1.464941,2.339843 3.630671,4.044263 5.660156,5.583985 1.967662,1.492817 4.137387,2.802718 6.474609,3.720703 2.072731,0.814099 4.427886,1.783833 6.964844,1.566406 1.829809,-0.156821 3.976974,-0.307899 5.935547,-1.18164 1.60958,-0.718052 2.955519,-1.861002 4.087891,-3.06836 2.40879,-2.568301 4.461158,-5.577407 5.824218,-8.859375 C 51.535274,41.006445 52.6112,36.736725 52.505907,32.464843 52.424077,29.14701 51.298417,25.98767 50.080078,23.085938 49.34812,21.342624 48.472576,19.896434 47.544517,18.372913 46.702715,16.990993 45.594824,15.778199 44.800842,14.36826 44.293826,13.46791 43.916169,12.499601 43.522503,11.544235 43.302304,11.009844 43.090482,10.470774 42.917127,9.9194027 42.695298,9.213854 42.362608,7.7710141 42.362608,7.7710141 c 0,0 -1.4437,0.8451647 -2.016572,1.4402635 -0.675483,0.7016915 -1.259261,1.5306984 -1.606543,2.4406674 -0.308351,0.807961 -0.360577,1.701835 -0.380045,2.566417 -0.05239,2.326782 1.117067,4.654183 0.710868,6.945834 -0.07091,0.40004 -0.202377,0.860245 -0.533272,1.095974 -0.269164,0.191753 -0.67157,0.225565 -0.98431,0.118739 -0.5572,-0.190329 -0.935547,-0.747444 -1.257812,-1.240234 -0.510937,-0.781299 -0.827412,-1.66583 -1.001953,-2.615234 -0.385414,-2.096422 -0.0653,-4.397203 0.228515,-6.800782 C 35.8153,9.319078 36.082529,6.7997353 35.337891,4.3007812 35.135975,3.6231638 34.742629,3.1026097 34.400391,2.6445312 34.058152,2.1864528 33.748047,1.8359375 33.748047,1.8359375 Z m 0.503906,3.86132808 c 0.06264,0.1138255 0.200546,0.3101339 0.212891,0.3515626 0.599312,2.0112504 0.407009,4.2365178 0.117187,6.6074222 -0.289821,2.370904 -0.676464,4.874059 -0.210937,7.40625 0.212394,1.155303 0.612134,2.337463 1.310547,3.373046 0.477617,0.708197 1.242255,1.683944 2.177734,1.978516 0.924532,0.291125 2.081553,0.173838 2.884295,-0.36941 0.702768,-0.475591 1.072397,-1.39181 1.238958,-2.223872 0.483837,-2.417021 -0.813488,-4.882746 -0.834992,-7.347625 -0.0056,-0.642223 -0.0086,-1.305284 0.184123,-1.917925 0.223577,-0.710622 1.09867,-1.946192 1.09867,-1.946192 0,0 0.315745,1.238952 0.525383,1.842064 0.380642,1.095077 0.783361,2.190865 1.326241,3.21525 0.759566,1.43326 1.849011,2.668679 2.680765,4.061288 0.836708,1.400902 1.723458,2.894375 2.318428,4.311422 1.186097,2.824941 2.198268,5.761096 2.269531,8.652344 0.09615,3.90115 -0.897521,7.917923 -2.425781,11.597656 -1.256119,3.024476 -3.172857,5.843334 -5.435547,8.25586 -1.01856,1.086009 -2.181504,2.0484 -3.443359,2.611328 -1.524405,0.680054 -3.456333,0.858218 -5.292969,1.015625 -1.903176,0.163109 -3.987292,-0.620475 -6.0625,-1.435547 -2.125751,-0.834926 -4.143822,-2.047852 -5.996094,-3.453125 -2.002447,-1.519209 -3.953107,-3.101015 -5.173828,-5.050781 -1.150805,-1.838097 -1.955728,-3.99515 -2.052734,-6.080079 -0.176409,-3.791519 0.412342,-7.942696 2.507812,-10.835937 0.252479,-0.348601 1.221709,-1.023201 2.09375,-1.46875 0.03321,-0.01697 0.02965,-0.01083 0.0625,-0.02734 -0.13532,1.227296 -0.251606,2.732958 -0.121093,3.955078 0.129227,1.210084 0.28706,2.659044 1.142578,3.914063 0.544449,0.798689 1.382341,1.468454 2.15625,2.017578 0.386954,0.274562 0.751415,0.505697 1.066406,0.675781 0.157495,0.08504 0.296873,0.154961 0.462891,0.214844 0.08301,0.02994 0.170042,0.05894 0.314453,0.07813 0.144411,0.01918 0.406702,0.09226 0.794922,-0.201172 0.446817,-0.337724 0.371442,-0.523068 0.396484,-0.634766 0.02504,-0.111698 0.0314,-0.184747 0.03711,-0.261718 0.01141,-0.153943 0.0121,-0.307571 0.0098,-0.486329 -0.0047,-0.357514 -0.02565,-0.804197 -0.04883,-1.294921 -0.04636,-0.981449 -0.100741,-2.142522 -0.07422,-2.851563 0.179646,-4.80262 0.0699,-9.596959 1.259766,-14.007812 0.885866,-3.283909 3.007117,-6.306795 4.558594,-9.7421879 0.678942,-1.5033645 1.415102,-3.2244357 1.964843,-4.4980469 z"
       id="path839"
       sodipodi:nodetypes="ccsssscsscccssssssssssssaaaacaaaaaaasssscccssssaaaaacaaasssssssssssscsssssssssssssscc" />
  </g>
</svg>
