<?xml version="1.0" encoding="UTF-8" standalone="no"?>
<svg
   xmlns:dc="http://purl.org/dc/elements/1.1/"
   xmlns:cc="http://creativecommons.org/ns#"
   xmlns:rdf="http://www.w3.org/1999/02/22-rdf-syntax-ns#"
   xmlns:svg="http://www.w3.org/2000/svg"
   xmlns="http://www.w3.org/2000/svg"
   xmlns:sodipodi="http://sodipodi.sourceforge.net/DTD/sodipodi-0.dtd"
   xmlns:inkscape="http://www.inkscape.org/namespaces/inkscape"
   sodipodi:docname="leaderboard_class_medic.svg"
   inkscape:version="1.0 (4035a4fb49, 2020-05-01)"
   id="svg8"
   version="1.1"
   viewBox="0 0 64 64"
   height="64"
   width="64">
  <defs
     id="defs2" />
  <sodipodi:namedview
     inkscape:window-maximized="1"
     inkscape:window-y="-8"
     inkscape:window-x="1912"
     inkscape:window-height="1377"
     inkscape:window-width="2560"
     units="px"
     showgrid="true"
     inkscape:document-rotation="0"
     inkscape:current-layer="layer3"
     inkscape:document-units="px"
     inkscape:cy="38.288095"
     inkscape:cx="36.7658"
     inkscape:zoom="22.627417"
     inkscape:pageshadow="2"
     inkscape:pageopacity="0.0"
     borderopacity="1.0"
     bordercolor="#666666"
     pagecolor="#ffffff"
     id="base">
    <inkscape:grid
       empopacity="0.31764706"
       empcolor="#3f3fff"
       opacity="0.10196078"
       color="#0000ff"
       spacingy="0.5"
       spacingx="0.5"
       empspacing="2"
       id="grid1443"
       type="xygrid" />
  </sodipodi:namedview>
  <metadata
     id="metadata5">
    <rdf:RDF>
      <cc:Work
         rdf:about="">
        <dc:format>image/svg+xml</dc:format>
        <dc:type
           rdf:resource="http://purl.org/dc/dcmitype/StillImage" />
        <dc:title />
      </cc:Work>
    </rdf:RDF>
  </metadata>
  <g
     style="display:inline;opacity:1"
     inkscape:label="leaderboard_class_medic"
     id="layer3"
     inkscape:groupmode="layer">
    <path
       style="color:#000000;font-style:normal;font-variant:normal;font-weight:normal;font-stretch:normal;font-size:medium;line-height:normal;font-family:sans-serif;font-variant-ligatures:normal;font-variant-position:normal;font-variant-caps:normal;font-variant-numeric:normal;font-variant-alternates:normal;font-variant-east-asian:normal;font-feature-settings:normal;font-variation-settings:normal;text-indent:0;text-align:start;text-decoration:none;text-decoration-line:none;text-decoration-style:solid;text-decoration-color:#000000;letter-spacing:normal;word-spacing:normal;text-transform:none;writing-mode:lr-tb;direction:ltr;text-orientation:mixed;dominant-baseline:auto;baseline-shift:baseline;text-anchor:start;white-space:normal;shape-padding:0;shape-margin:0;inline-size:0;clip-rule:nonzero;display:inline;overflow:visible;visibility:visible;isolation:auto;mix-blend-mode:normal;color-interpolation:sRGB;color-interpolation-filters:linearRGB;solid-color:#000000;solid-opacity:1;vector-effect:none;fill:#c34700;fill-opacity:1;fill-rule:nonzero;stroke:none;stroke-width:2;stroke-linecap:butt;stroke-linejoin:round;stroke-miterlimit:4;stroke-dasharray:none;stroke-dashoffset:17.0079;stroke-opacity:1;color-rendering:auto;image-rendering:auto;shape-rendering:auto;text-rendering:auto;enable-background:accumulate;stop-color:#000000"
       d="M 6,21 H 21 V 7 H 44 V 21 H 58 V 44 H 44 V 59 H 21 V 44 H 6 Z"
       id="path1728"
       inkscape:label="fill" />
    <path
       sodipodi:nodetypes="cssccssccssccsscc"
       id="path1448"
       d="M 54.5,24.5 H 43 c -1.5,0 -2.5,-1 -2.5,-2.5 V 10.5 h -16 V 22 c 0,1.5 -1,2.5 -2.5,2.5 H 9.5 v 16 H 22 c 1.5,0 2.5,1 2.5,2.5 v 12.5 h 16 V 43 c 0,-1.5 1,-2.5 2.5,-2.5 h 11.5 z"
       style="fill:none;stroke:#e8b898;stroke-width:1;stroke-linecap:square;stroke-linejoin:round;stroke-miterlimit:1.5;stroke-dasharray:none;stroke-opacity:1"
       inkscape:label="highlight" />
    <path
       style="color:#000000;font-style:normal;font-variant:normal;font-weight:normal;font-stretch:normal;font-size:medium;line-height:normal;font-family:sans-serif;font-variant-ligatures:normal;font-variant-position:normal;font-variant-caps:normal;font-variant-numeric:normal;font-variant-alternates:normal;font-variant-east-asian:normal;font-feature-settings:normal;font-variation-settings:normal;text-indent:0;text-align:start;text-decoration:none;text-decoration-line:none;text-decoration-style:solid;text-decoration-color:#000000;letter-spacing:normal;word-spacing:normal;text-transform:none;writing-mode:lr-tb;direction:ltr;text-orientation:mixed;dominant-baseline:auto;baseline-shift:baseline;text-anchor:start;white-space:normal;shape-padding:0;shape-margin:0;inline-size:0;clip-rule:nonzero;display:inline;overflow:visible;visibility:visible;isolation:auto;mix-blend-mode:normal;color-interpolation:sRGB;color-interpolation-filters:linearRGB;solid-color:#000000;solid-opacity:1;vector-effect:none;fill:#000000;fill-opacity:1;fill-rule:nonzero;stroke:none;stroke-width:2;stroke-linecap:butt;stroke-linejoin:round;stroke-miterlimit:4;stroke-dasharray:none;stroke-dashoffset:17.0079;stroke-opacity:1;color-rendering:auto;image-rendering:auto;shape-rendering:auto;text-rendering:auto;enable-background:accumulate;stop-color:#000000"
       d="M 22,6 C 21,6 20,7 20,8 V 20 H 7 c -1,0 -2,1 -2,2 v 21 c 0,1 1,2 2,2 h 13 v 13 c 0,1 1,2 2,2 h 21 c 1,0 2,-1 2,-2 V 45 h 12 c 1,0 2,-1 2,-2 V 22 c 0,-1 -1,-2 -2,-2 H 45 V 8 C 45,7 44,6 43,6 Z m 0,2 h 21 v 13 c 5.5e-5,0.552262 0.447738,0.999945 1,1 H 57 V 43 H 44 c -0.552262,5.5e-5 -0.999945,0.447738 -1,1 V 58 H 22 V 44 c -5.5e-5,-0.552262 -0.447738,-0.999945 -1,-1 H 7 V 22 h 14 c 0.552262,-5.5e-5 0.999945,-0.447738 1,-1 z"
       id="path1730"
       sodipodi:nodetypes="cccccccccccccccccccccccccccccccccccccc"
       inkscape:label="outline" />
  </g>
</svg>
